# xmcd
#
# Track frame offsets:
#	150
#	10339
#	28897
#	51484
#	72008
#	96521
#	128660
#	164418
#	200038
#
# Disc length: 2884 seconds
#
# Revision: 1
# Processed by: cddbd v1.5PL3 Copyright (c) Steve Scherf et al.
# Submitted via: audiograbber 1.83.01
#
DISCID=820b4209
DTITLE=Modern Jazz Quartet - Opus De Funk
DYEAR=2002
DGENRE=Modern Jazz Quartet
TTITLE0=Rose Of The Rio Grande
TTITLE1=Opus De Funk
TTITLE2=I've Lost Your Love
TTITLE3=Buhaina
TTITLE4=Soma
TTITLE5=Ralph's New Blues
TTITLE6=Gerswin Medley
TTITLE7=Softly, As In The Morning Sunrise
TTITLE8=Concorde
EXTD=
EXTT0=
EXTT1=
EXTT2=
EXTT3=
EXTT4=
EXTT5=
EXTT6=
EXTT7=
EXTT8=
PLAYORDER=
